<svg version="1.1" id="Layer_1" xmlns="http://www.w3.org/2000/svg" xmlns:xlink="http://www.w3.org/1999/xlink" x="0px" y="0px"
	 width="100%" viewBox="0 0 1024 1024" enable-background="new 0 0 1024 1024" xml:space="preserve">
<path fill="#000000" opacity="1.000000" stroke="none" 
	d="
M467.720367,692.985352 
	C485.430664,617.250427 529.708801,562.395752 597.087036,525.827148 
	C633.323120,506.160431 672.588440,498.189270 713.688843,499.892548 
	C728.806702,500.519043 743.850159,502.531830 758.507690,506.740540 
	C764.020752,508.323547 767.103088,511.545258 768.595642,517.195984 
	C775.220459,542.276794 776.545959,567.683960 774.491333,593.440857 
	C770.627258,641.881104 752.252930,684.410034 721.603516,721.610168 
	C685.000671,766.036011 639.394226,796.583740 582.434326,808.674866 
	C550.032288,815.552979 517.681519,815.012085 485.292786,808.138062 
	C475.676270,806.097107 470.465576,801.472107 468.298187,791.469360 
	C461.207916,758.747253 460.634583,726.143188 467.720367,692.985352 
M531.327026,607.814880 
	C493.148804,656.170593 478.477814,710.818176 486.450531,771.911743 
	C489.909760,771.767151 491.166351,769.808411 492.631897,768.345215 
	C511.616364,749.391113 530.544495,730.380493 549.513000,711.410339 
	C551.621582,709.301636 552.705261,706.997803 552.698120,703.890564 
	C552.613342,666.893127 552.642273,629.895447 552.612366,592.897827 
	C552.610657,590.831055 552.900879,588.600159 550.757629,586.641418 
	C543.414124,592.777588 537.810059,600.222900 531.327026,607.814880 
M576.190063,684.224060 
	C597.049744,663.384338 617.898071,642.533203 638.788513,621.724426 
	C640.655151,619.864990 641.724243,617.940186 641.716003,615.173950 
	C641.638916,589.185608 641.709167,563.196899 641.648071,537.208435 
	C641.634460,531.396729 640.611633,530.720886 635.119141,532.569580 
	C614.417419,539.537415 595.541321,549.945984 577.916016,562.781250 
	C574.986145,564.914856 574.038757,567.281250 574.047607,570.747864 
	C574.140869,607.398132 574.099915,644.048645 574.174622,680.698975 
	C574.177307,682.020569 572.985901,684.150635 576.190063,684.224060 
M589.232666,701.732483 
	C578.286987,712.747559 567.341248,723.762634 556.472839,734.699951 
	C558.279907,736.882019 559.871643,736.601624 561.326355,736.601074 
	C598.471313,736.588013 635.616272,736.510010 672.761047,736.580322 
	C676.419800,736.587219 679.022949,735.233521 681.576538,732.825867 
	C696.921997,718.357605 710.431030,702.372559 721.766296,684.578979 
	C722.862854,682.857666 724.539062,681.194946 723.776917,678.575928 
	C722.609070,678.452209 721.468811,678.227112 720.328369,678.225891 
	C685.681091,678.187866 651.033752,678.192383 616.386597,678.113464 
	C613.638062,678.107178 611.683105,679.162537 609.831421,681.049988 
	C603.182495,687.827209 596.441589,694.514160 589.232666,701.732483 
M753.727478,586.229736 
	C753.920166,571.050781 754.595642,555.838989 751.476074,541.229309 
	C713.033264,579.453003 674.862427,617.406311 636.650391,655.400513 
	C637.384583,656.385986 638.647034,656.016174 639.736511,656.017395 
	C670.527649,656.051392 701.318848,656.022400 732.109802,656.107788 
	C735.591980,656.117432 737.505371,654.853271 738.838684,651.554688 
	C747.201294,630.866516 752.047363,609.395386 753.727478,586.229736 
M536.979858,758.225098 
	C534.010864,757.836304 531.972107,759.382751 530.015564,761.360779 
	C522.168640,769.293701 514.236633,777.142395 506.395447,785.080872 
	C505.322144,786.167542 503.600433,787.059570 504.253693,789.653931 
	C554.994019,796.433899 602.329041,787.476196 645.777283,760.236328 
	C645.697083,759.565125 645.616882,758.893982 645.536682,758.222839 
	C609.650940,758.222839 573.765259,758.222839 536.979858,758.225098 
M663.090332,541.503418 
	C663.090332,559.284180 663.090332,577.064941 663.090332,593.287781 
	C686.496704,570.281006 709.960144,547.218201 733.399719,524.178833 
	C733.342163,524.147461 732.799438,523.645447 732.193665,523.551941 
	C710.297058,520.170776 688.451416,520.854492 666.649780,524.461304 
	C664.084717,524.885681 663.049988,526.457092 663.104919,529.027100 
	C663.186707,532.851624 663.105774,536.679565 663.090332,541.503418 
z"/>
<path fill="#000000" opacity="1.000000" stroke="none" 
	d="
M343.097992,500.677368 
	C389.956573,505.005798 431.220398,522.076538 467.787201,550.773376 
	C475.656769,556.949219 483.200653,563.504089 490.211731,570.653748 
	C495.250305,575.791809 495.760040,582.796082 491.413818,587.108398 
	C486.805328,591.680969 480.487885,591.321594 475.020020,586.019531 
	C466.516815,577.774109 457.667389,569.940735 448.088928,562.958252 
	C446.522827,561.816589 445.089386,560.354248 443.016388,560.071411 
	C441.599976,561.829895 442.080872,563.732788 442.079010,565.481812 
	C442.041626,600.806946 442.092072,636.132202 441.988922,671.457031 
	C441.978363,675.080444 442.937073,677.867920 445.662384,680.255188 
	C448.038116,682.336182 450.242828,684.632751 452.369537,686.973572 
	C457.300659,692.401184 457.407166,698.509521 452.767944,703.004944 
	C448.311981,707.322815 442.256622,707.316467 437.146912,702.323730 
	C426.780853,692.195068 416.687714,681.787109 406.471954,671.504395 
	C401.422302,666.421631 396.335449,661.375793 391.296570,656.282532 
	C389.602814,654.570496 387.817810,653.353455 385.221069,653.357605 
	C353.895294,653.407715 322.569366,653.392456 291.243500,653.416626 
	C290.612518,653.417114 289.981689,653.687256 289.122101,653.883789 
	C289.070557,657.489319 290.938904,660.363647 292.412201,663.205078 
	C322.491577,721.218567 367.240295,762.427856 429.972931,782.953979 
	C436.882812,785.214966 440.528198,790.714661 438.882050,796.383301 
	C436.956451,803.014160 431.301758,805.848145 423.737946,803.590576 
	C388.097870,792.953125 357.190765,774.116455 330.056396,748.927246 
	C297.551788,718.752808 273.599823,683.024475 260.437012,640.425110 
	C251.526474,611.587524 248.859619,582.127441 251.526474,552.082703 
	C252.559357,540.446289 254.357666,529.006409 257.144379,517.664734 
	C258.622467,511.649048 261.888611,508.172424 267.896393,506.627380 
	C292.480225,500.305054 317.366699,498.161163 343.097992,500.677368 
M420.642120,587.500061 
	C420.639252,575.177063 420.537476,562.852844 420.694366,550.531921 
	C420.740875,546.880371 419.444946,544.733276 416.139252,543.136475 
	C403.813477,537.182373 391.129730,532.224182 377.909576,528.666260 
	C376.342834,528.244629 374.733490,527.604248 372.831848,528.416443 
	C372.671814,529.270996 372.338745,530.224854 372.336945,531.179321 
	C372.291595,555.325439 372.308594,579.471741 372.224854,603.617676 
	C372.215729,606.249695 373.500061,607.931030 375.200470,609.628540 
	C389.224396,623.628662 403.202515,637.674622 417.241974,651.658997 
	C418.048218,652.462097 418.604858,654.059326 420.640411,653.360657 
	C420.640411,631.761169 420.640411,610.130615 420.642120,587.500061 
M297.502380,631.816406 
	C319.979431,631.816406 342.456512,631.816406 365.136017,631.816406 
	C334.444519,601.326965 304.435699,571.515686 274.561615,541.838257 
	C272.927612,545.790283 273.340027,550.839172 272.892578,555.748962 
	C270.665344,580.188538 272.872040,604.240540 279.186371,627.951355 
	C279.919495,630.704163 281.228210,631.878540 284.013153,631.820129 
	C288.174896,631.732910 292.340088,631.809570 297.502380,631.816406 
M337.068359,571.431885 
	C341.147888,575.715881 345.227386,579.999939 349.306885,584.283997 
	C350.531952,581.897461 350.694031,580.289917 350.696136,578.682129 
	C350.717255,562.519287 350.729248,546.356506 350.706268,530.193665 
	C350.696594,523.395264 350.203583,522.980042 343.429718,522.356628 
	C330.124207,521.131958 316.808472,520.984802 303.529510,522.408936 
	C299.444092,522.847046 295.033295,522.372742 290.108704,525.267334 
	C305.941620,540.827515 321.256317,555.878418 337.068359,571.431885 
z"/>
<path fill="#000000" opacity="1.000000" stroke="none" 
	d="
M647.687500,225.907318 
	C650.458374,226.755814 650.240173,228.747055 650.242371,230.542313 
	C650.268066,251.187042 650.165466,271.832642 650.340088,292.475922 
	C650.379578,297.148102 647.936157,297.497253 644.360657,297.397217 
	C640.899292,297.300415 637.661682,297.721741 637.749512,292.507935 
	C637.953003,280.431305 637.814209,268.348846 637.175110,256.170959 
	C635.966431,260.448486 634.699707,264.710754 633.567200,269.008392 
	C632.649414,272.491455 631.921326,275.426819 626.989014,275.409973 
	C622.257629,275.393799 621.613953,272.570862 620.726013,269.290375 
	C619.526855,264.860352 618.256348,260.449677 616.276306,256.139435 
	C616.276306,268.052490 616.090088,279.969940 616.370361,291.876373 
	C616.478516,296.470520 614.668030,297.603577 610.495300,297.432892 
	C606.719421,297.278412 603.726562,297.428802 603.782410,292.084351 
	C603.994690,271.774811 603.935364,251.461151 603.792236,231.150330 
	C603.763000,227.000641 605.281738,225.638733 609.366394,225.683044 
	C618.249207,225.779434 618.244324,225.608871 620.759949,234.271469 
	C622.642883,240.755264 624.072083,247.387634 627.059937,254.337341 
	C630.049988,248.158279 630.975098,242.091324 632.812744,236.331223 
	C636.686584,224.188431 634.047546,225.809509 647.687500,225.907318 
z"/>
<path fill="#000000" opacity="1.000000" stroke="none" 
	d="
M518.941101,228.791168 
	C528.697998,234.308441 532.549744,243.155380 533.829224,253.232193 
	C535.095703,263.205963 534.837158,273.183960 530.329163,282.523315 
	C525.721863,292.068268 518.190063,297.247681 507.436737,297.331268 
	C501.118225,297.380402 494.797272,297.257202 488.480896,297.383820 
	C485.256805,297.448395 483.575195,296.528320 483.589966,292.909149 
	C483.675476,271.957428 483.609680,251.005096 483.617554,230.052979 
	C483.618256,228.215698 483.585938,225.915283 486.122314,225.971985 
	C496.993866,226.215103 508.094086,223.882660 518.941101,228.791168 
M504.374207,237.212906 
	C502.541626,237.227386 500.707886,237.289444 498.876740,237.244904 
	C496.325348,237.182846 495.333954,238.415268 495.341614,240.911072 
	C495.384705,254.906219 495.358459,268.901581 495.363037,282.896851 
	C495.363525,284.424255 495.424652,285.827911 497.286621,286.495972 
	C506.392059,289.762848 517.591064,284.401825 520.270630,275.036011 
	C522.741577,266.399139 522.664551,257.563507 520.392212,248.879089 
	C518.239136,240.650513 513.844299,237.440903 504.374207,237.212906 
z"/>
<path fill="#000000" opacity="1.000000" stroke="none" 
	d="
M455.986023,225.753922 
	C458.483337,225.753326 460.483246,225.747467 462.483124,225.753586 
	C468.875580,225.773178 469.325012,226.370102 469.259186,232.500305 
	C469.222534,235.916840 467.906738,237.281311 464.493195,237.236450 
	C456.495270,237.131271 448.491699,237.365021 440.496338,237.190781 
	C436.754059,237.109238 435.201874,238.110245 435.194702,242.236755 
	C435.171387,255.645065 435.005768,255.644836 448.569366,255.653442 
	C450.735931,255.654816 452.902557,255.642899 455.069000,255.658295 
	C461.354645,255.703003 461.316406,255.859238 461.410156,262.125244 
	C461.462250,265.605499 460.157288,266.956757 456.782074,266.908112 
	C451.283844,266.828827 445.780823,267.023621 440.284393,266.900116 
	C436.764191,266.821075 435.292236,268.008270 435.217102,271.798584 
	C434.923218,286.623291 434.805939,286.618469 449.635223,286.635529 
	C454.801575,286.641479 459.971069,286.778625 465.133301,286.640228 
	C469.116241,286.533417 469.265411,289.025970 469.214783,291.910492 
	C469.166595,294.655884 469.398163,297.369690 465.308197,297.346283 
	C452.476044,297.272797 439.643066,297.294312 426.810760,297.355042 
	C423.720520,297.369690 422.784851,295.809296 422.791138,292.993530 
	C422.837616,272.161438 422.878967,251.329041 422.794708,230.497253 
	C422.779327,226.694565 424.487610,225.646439 427.990662,225.701508 
	C437.154633,225.845566 446.322388,225.752625 455.986023,225.753922 
z"/>
<path fill="#000000" opacity="1.000000" stroke="none" 
	d="
M582.888123,297.347717 
	C571.244202,297.348389 560.085144,297.238892 548.930298,297.407074 
	C545.062988,297.465393 543.645630,296.114532 543.668518,292.197174 
	C543.788025,271.714966 543.763184,251.231277 543.649292,230.748871 
	C543.629211,227.150421 544.814270,225.671722 548.544312,225.715088 
	C560.699219,225.856400 572.858582,225.879898 585.012451,225.696945 
	C589.697388,225.626419 589.944946,228.382263 590.016846,231.842560 
	C590.092834,235.502396 588.906982,237.383026 584.847961,237.283875 
	C576.859558,237.088745 568.860840,237.339920 560.870300,237.193817 
	C557.480469,237.131821 556.057007,238.286835 556.150391,241.801056 
	C556.599487,258.704895 553.604614,255.216858 569.539429,255.645447 
	C571.702759,255.703644 573.869080,255.645325 576.033875,255.658295 
	C581.877380,255.693283 584.102905,259.002289 582.160217,264.596863 
	C581.358826,266.904633 579.427002,266.826965 577.666687,266.861328 
	C572.006653,266.971802 566.342834,267.003204 560.682373,266.923492 
	C557.574219,266.879730 556.305908,268.077667 556.128967,271.313599 
	C555.291687,286.626312 555.213196,286.621582 570.575562,286.632477 
	C574.905273,286.635529 579.242676,286.803406 583.562561,286.599426 
	C587.598328,286.408875 590.121826,286.993561 590.111511,292.088867 
	C590.100769,297.367188 587.211609,297.648834 582.888123,297.347717 
z"/>
<path fill="#000000" opacity="1.000000" stroke="none" 
	d="
M358.155853,292.227875 
	C364.577087,271.684326 371.060577,251.571854 377.015320,231.304031 
	C378.714386,225.520981 382.422211,225.829834 386.897614,225.640518 
	C391.237579,225.456924 393.052582,227.235764 394.251404,231.202988 
	C400.312988,251.262482 406.628448,271.245178 412.808197,291.269196 
	C413.333588,292.971680 414.250031,294.669281 413.629456,296.704773 
	C410.611023,297.906403 407.435944,297.210449 404.319794,297.253204 
	C402.786530,297.274261 401.879333,296.365173 401.398163,294.978668 
	C400.852905,293.407593 400.269043,291.847809 399.787018,290.257324 
	C396.391663,279.053619 398.508026,280.509888 386.323486,280.435455 
	C374.433655,280.362823 374.433319,280.417480 371.257324,291.408020 
	C369.327026,298.087860 368.185822,298.556335 358.011475,296.801270 
	C356.880707,295.429321 357.750885,294.009583 358.155853,292.227875 
M392.509613,268.268188 
	C391.511078,260.090363 388.121338,252.633484 385.701447,243.461945 
	C383.152191,251.834793 381.062683,258.792786 378.903748,265.729156 
	C378.276459,267.744537 378.080688,269.568878 380.860443,269.553162 
	C384.612366,269.531982 388.438995,270.482452 392.509613,268.268188 
z"/>
<path fill="#000000" opacity="1.000000" stroke="none" 
	d="
M372.337585,725.887085 
	C376.526123,718.274414 382.386749,716.343262 389.020752,720.982727 
	C406.085693,732.917175 424.343475,742.265991 444.246490,748.489685 
	C450.555634,750.462646 453.457275,756.304321 451.681305,761.802307 
	C449.779846,767.688782 444.150421,770.751038 437.668365,768.857178 
	C415.548676,762.394470 395.260712,752.169128 376.733490,738.478760 
	C372.639099,735.453186 370.703827,731.446106 372.337585,725.887085 
z"/>
<path fill="#000000" opacity="1.000000" stroke="none" 
	d="
M464.297241,516.690918 
	C460.529541,512.896545 456.949158,509.409546 453.505585,505.792267 
	C448.781647,500.829987 448.477905,494.638733 452.599579,490.069427 
	C456.584808,485.651428 463.191620,485.360931 468.219025,490.053894 
	C475.273895,496.639435 482.118805,503.477295 488.686829,510.547852 
	C493.531769,515.763489 493.244720,521.759277 488.680145,526.133484 
	C484.206329,530.420776 478.165222,530.186462 473.049530,525.393921 
	C470.133881,522.662476 467.375031,519.763672 464.297241,516.690918 
z"/>
<path fill="#000000" opacity="1.000000" stroke="none" 
	d="
M567.380981,511.377228 
	C562.433105,516.323486 557.798462,521.083557 553.025452,525.700745 
	C548.193909,530.374512 541.690613,530.639954 537.402161,526.513000 
	C532.657288,521.946777 532.552612,515.813782 537.543945,510.599518 
	C544.086609,503.764679 550.784058,497.069427 557.607727,490.514801 
	C562.703064,485.620270 568.637085,485.633667 573.079956,490.137268 
	C577.420898,494.537567 577.369995,500.638367 572.850708,505.781891 
	C571.209412,507.649963 569.378052,509.351074 567.380981,511.377228 
z"/>
<path fill="#000000" opacity="1.000000" stroke="none" 
	d="
M520.899902,508.840393 
	C516.919434,512.602478 512.690002,513.213318 508.203217,510.982574 
	C504.020294,508.902863 502.527039,505.243103 502.579956,500.670349 
	C502.686035,491.509705 502.563721,482.346558 502.648132,473.185486 
	C502.710693,466.392639 506.635925,461.972321 512.592163,461.732452 
	C518.540771,461.492950 522.960510,465.481873 523.556763,472.205902 
	C524.410767,481.837982 524.022339,491.509186 523.808411,501.162537 
	C523.749023,503.841156 523.018188,506.438110 520.899902,508.840393 
z"/>
<path fill="#000000" opacity="1.000000" stroke="none" 
	d="
M365.837067,712.458618 
	C361.423248,717.752563 357.411407,719.072937 352.643036,717.071411 
	C348.257355,715.230652 345.499725,710.961060 345.815796,706.501099 
	C346.153015,701.742920 349.566803,697.726929 354.283844,696.618591 
	C358.403412,695.650635 361.947662,696.949036 364.554962,700.069031 
	C367.542633,703.644165 368.251495,707.770935 365.837067,712.458618 
z"/>
</svg>